<svg height="300px" width="300px" fill="#000000" xmlns="http://www.w3.org/2000/svg" xmlns:xlink="http://www.w3.org/1999/xlink" version="1.1" x="0px" y="0px" viewBox="0 0 54 52" enable-background="new 0 0 54 52" xml:space="preserve"><g><path d="M53.52,0.14c-0.3-0.18-0.67-0.19-0.98-0.03L36,8.87L19.47,0.12c-0.01-0.01-0.03-0.01-0.04-0.02   c-0.05-0.02-0.1-0.04-0.15-0.05c-0.03-0.01-0.05-0.02-0.08-0.02c-0.06-0.01-0.11-0.02-0.17-0.02c-0.03,0-0.05,0-0.08,0   c-0.05,0-0.11,0.01-0.16,0.03c-0.03,0.01-0.06,0.01-0.09,0.02c-0.01,0-0.01,0-0.02,0l-18,6C0.28,6.19,0,6.57,0,7v43   c0,0.32,0.15,0.62,0.42,0.81C0.59,50.94,0.79,51,1,51c0.11,0,0.21-0.02,0.32-0.05l17.65-5.88l16.66,6.86   c0.01,0.01,0.03,0,0.04,0.01C35.77,51.97,35.89,52,36,52c0.09,0,0.18-0.02,0.27-0.04c0.03-0.01,0.05-0.02,0.08-0.03   c0.04-0.02,0.08-0.03,0.12-0.05l17-9C53.8,42.71,54,42.37,54,42V1C54,0.65,53.82,0.32,53.52,0.14z M2,7.72l16-5.33v26.99   c-0.43,0.08-0.85,0.17-1.26,0.27c-0.53,0.14-0.85,0.69-0.71,1.22c0.12,0.45,0.52,0.74,0.97,0.74c0.08,0,0.17-0.01,0.26-0.03   c0.24-0.06,0.5-0.1,0.75-0.15v11.84L2,48.61V7.72z M20,31.16c0.32-0.02,0.63-0.07,0.96-0.07c0.55-0.01,0.99-0.47,0.98-1.02   c-0.01-0.54-0.46-0.98-1-0.98c-0.01,0-0.01,0-0.02,0c-0.31,0.01-0.61,0.02-0.92,0.05V2.66l15,7.94V31.8   c-0.71-0.03-1.44-0.11-2.2-0.26c-0.54-0.11-1.07,0.25-1.17,0.79s0.25,1.07,0.79,1.17c0.89,0.17,1.75,0.26,2.58,0.29v15.72l-15-6.18   V31.16z M52,41.4l-15,7.94V33.68c0.37-0.17,0.62-0.55,0.59-0.98c-0.03-0.37-0.27-0.67-0.59-0.82V10.6l15-7.94V41.4z"/><path d="M11,8c-2.76,0-5,2.24-5,5c0,2.41,1.72,4.43,4,4.9V20c0,0.55,0.45,1,1,1s1-0.45,1-1v-2.1c2.28-0.46,4-2.48,4-4.9   C16,10.24,13.76,8,11,8z M11,16c-1.65,0-3-1.35-3-3s1.35-3,3-3s3,1.35,3,3S12.65,16,11,16z"/><path d="M40.42,32.73c0.15,0,0.31-0.04,0.45-0.11c1.29-0.66,2.43-1.6,3.38-2.79c0.35-0.43,0.28-1.06-0.15-1.41   c-0.43-0.34-1.06-0.28-1.41,0.15c-0.78,0.97-1.7,1.73-2.73,2.26c-0.49,0.25-0.69,0.85-0.44,1.35   C39.71,32.53,40.06,32.73,40.42,32.73z"/><path d="M12.81,31.34c-1.21,0.76-2.29,1.71-3.23,2.82c-0.36,0.42-0.3,1.05,0.12,1.41c0.19,0.16,0.42,0.24,0.64,0.24   c0.28,0,0.57-0.12,0.77-0.36c0.81-0.96,1.74-1.77,2.77-2.41c0.47-0.29,0.61-0.91,0.32-1.38C13.89,31.19,13.27,31.05,12.81,31.34z"/><path d="M8.63,37.28c-0.5-0.23-1.1-0.01-1.33,0.49c-1.03,2.23-1.28,4.02-1.29,4.1c-0.07,0.55,0.31,1.05,0.85,1.12   C6.91,43,6.96,43,7,43c0.49,0,0.92-0.36,0.99-0.86c0-0.02,0.23-1.6,1.13-3.53C9.35,38.1,9.13,37.51,8.63,37.28z"/><path d="M45.07,26.67c0.12,0.05,0.24,0.07,0.36,0.07c0.4,0,0.78-0.24,0.93-0.64c0.47-1.2,0.85-2.55,1.12-4.02   c0.1-0.54-0.26-1.06-0.8-1.17c-0.55-0.09-1.07,0.26-1.17,0.8c-0.25,1.35-0.6,2.58-1.02,3.66C44.3,25.89,44.56,26.47,45.07,26.67z"/><path d="M29.17,30.43c-0.44-0.18-0.7-0.31-0.72-0.32c-0.06-0.03-0.13-0.06-0.21-0.08c-1.08-0.28-2.15-0.5-3.17-0.65   c-0.55-0.09-1.06,0.29-1.14,0.84c-0.08,0.55,0.29,1.06,0.84,1.14c0.93,0.14,1.89,0.34,2.88,0.59c0.13,0.06,0.39,0.18,0.75,0.33   c0.13,0.05,0.26,0.08,0.39,0.08c0.39,0,0.76-0.23,0.92-0.61C29.92,31.23,29.68,30.64,29.17,30.43z"/><path d="M46.92,18.93c0.02,0,0.04,0,0.06,0c0.52,0,0.96-0.41,1-0.94c0.06-0.96,0.09-1.98,0.09-3.02c0-0.35,0-0.7-0.01-1.06   c-0.01-0.55-0.49-0.97-1.02-0.98c-0.55,0.01-0.99,0.47-0.98,1.02c0.01,0.35,0.01,0.69,0.01,1.02c0,1-0.03,1.97-0.09,2.89   C45.95,18.42,46.37,18.9,46.92,18.93z"/><path d="M8.29,27.71C8.49,27.9,8.74,28,9,28s0.51-0.1,0.71-0.29L11,26.41l1.29,1.29C12.49,27.9,12.74,28,13,28s0.51-0.1,0.71-0.29   c0.39-0.39,0.39-1.02,0-1.41L12.41,25l1.29-1.29c0.39-0.39,0.39-1.02,0-1.41s-1.02-0.39-1.41,0L11,23.59l-1.29-1.29   c-0.39-0.39-1.02-0.39-1.41,0s-0.39,1.02,0,1.41L9.59,25l-1.29,1.29C7.9,26.68,7.9,27.32,8.29,27.71z"/></g></svg>