<svg height="300px" width="300px" fill="#000000" xmlns="http://www.w3.org/2000/svg" viewBox="0 0 50 68" x="0px" y="0px"><path fill="#000000" fill-rule="evenodd" d="M485.03094,845.758822 C484.839558,846.524352 485.568714,847.199573 486.31731,846.950041 L492.001083,845.05545 L497.684855,846.950041 C497.890122,847.018463 498.112044,847.018463 498.31731,846.950041 L503.87114,845.098764 C504.28165,845.341308 504.825266,845.628645 505.469944,845.915169 C506.993151,846.59215 508.52768,847.001357 510.001083,847.001357 C511.474486,847.001357 513.009014,846.59215 514.532221,845.915169 C515.176899,845.628645 515.720515,845.341308 516.131026,845.098764 L521.684855,846.950041 C521.890122,847.018463 522.112044,847.018463 522.31731,846.950041 L528.001083,845.05545 L533.684855,846.950041 C534.433452,847.199573 535.162608,846.524352 534.971225,845.758822 L533.031859,838.001357 L534.971225,830.243893 C535.011035,830.084653 535.011035,829.918062 534.971225,829.758822 L533.051924,822.081616 C533.108266,821.942683 533.174459,821.774536 533.248515,821.579406 C533.491417,820.939384 533.733812,820.228362 533.960017,819.463579 C534.593738,817.321006 534.981779,815.175948 535.000397,813.150129 C535.001083,810.921465 534.605045,808.894125 533.945789,806.99485 C533.633952,806.096465 533.319771,805.376039 533.064477,804.870884 L534.971225,797.243893 C535.011035,797.084653 535.011035,796.918062 534.971225,796.758822 L533.02848,788.987841 L534.97727,780.218288 C535.145888,779.459503 534.422261,778.806872 533.684855,779.052674 L528.001083,780.947265 L522.31731,779.052674 C522.112044,778.984252 521.890122,778.984252 521.684855,779.052674 L516.131026,780.903951 C515.720515,780.661407 515.176899,780.374069 514.532221,780.087546 C513.009014,779.410565 511.474486,779.001357 510.001083,779.001357 C508.52768,779.001357 506.993151,779.410565 505.469944,780.087546 C504.825266,780.374069 504.28165,780.661407 503.87114,780.903951 L498.31731,779.052674 C498.112044,778.984252 497.890122,778.984252 497.684855,779.052674 L492.001083,780.947265 L486.31731,779.052674 C485.579904,778.806872 484.856277,779.459503 485.024896,780.218288 L486.973685,788.987841 L485.03094,796.758822 C484.99113,796.918062 484.99113,797.084653 485.03094,797.243893 L486.944123,804.896623 C486.892718,805.009363 486.834274,805.14095 486.770046,805.290181 C486.525046,805.859423 486.28066,806.492793 486.052588,807.175657 C485.396232,809.140827 485.001083,811.118919 485.001083,813.001357 C485.001083,813.667254 485.051573,814.374372 485.147594,815.117927 C485.319233,816.447031 485.629952,817.853797 486.039682,819.285419 C486.264414,820.070645 486.505043,820.814595 486.745959,821.494805 C486.825515,821.719428 486.895739,821.911154 486.954083,822.06625 L485.03094,829.758822 C484.99113,829.918062 484.99113,830.084653 485.03094,830.243893 L486.970306,838.001357 L485.03094,845.758822 Z M493,786 L527,786 C527.552285,786 528,786.447715 528,787 L528,839 C528,839.552285 527.552285,840 527,840 L493,840 C492.447715,840 492,839.552285 492,839 L492,787 C492,786.447715 492.447715,786 493,786 Z M510,819 C513.903146,819 517,815.387003 517,811 C517,806.612997 513.903146,803 510,803 C506.096854,803 503,806.612997 503,811 C503,815.387003 506.096854,819 510,819 Z M522,837 C522,828.218629 516.706339,821 510,821 C503.293661,821 498,828.218629 498,837 C498,837.334767 498.008284,837.504858 498.008284,837.504858 C498.016382,837.778317 498.244786,838 498.523262,838 L521.47674,838 C521.753057,838 521.984315,837.771861 521.991717,837.504856 C521.991717,837.504856 522,837.334763 522,837 Z" transform="translate(-485 -779)"/></svg>