<svg height="300px" width="300px" fill="#000000" xmlns="http://www.w3.org/2000/svg" xmlns:xlink="http://www.w3.org/1999/xlink" xml:space="preserve" version="1.1" style="shape-rendering:geometricPrecision;text-rendering:geometricPrecision;image-rendering:optimizeQuality;" viewBox="0 0 107.918 101.953" x="0px" y="0px" fill-rule="evenodd" clip-rule="evenodd"><defs><style type="text/css">
   
    .fil0 {fill:#000000}
   
  </style></defs><g><path class="fil0" d="M51.132 46.354c0.506,0.241 8.723,4.282 10.792,12.959l0.09 -0.216c0.265,-0.678 0.459,-1.524 0.534,-2.448 0.028,-0.371 0.353,-0.647 0.724,-0.619 0.216,0.017 0.401,0.135 0.511,0.304 0.631,0.889 2.11,4.364 1.408,8.343 -0.415,2.355 -1.582,4.903 -4.112,7.219 -0.129,0.118 -0.291,0.176 -0.454,0.176l-5.528 0.004c-0.372,0 -0.675,-0.302 -0.675,-0.675 0,-0.126 0.035,-0.245 0.095,-0.345 0.507,-0.993 0.909,-3.221 0.836,-5.472 -0.026,-0.796 -0.111,-1.588 -0.274,-2.319 -0.271,1.358 -0.681,2.724 -1.216,3.988 -0.803,1.894 -1.892,3.568 -3.223,4.667 -0.125,0.103 -0.276,0.153 -0.427,0.153l-3.434 0.003c-0.172,0 -0.328,-0.064 -0.448,-0.17 -1.503,-1.132 -2.967,-2.841 -3.539,-5.189 -0.443,-1.814 -0.349,-3.998 0.679,-6.568 0.947,-2.368 2.089,-3.993 3.184,-5.552 1.491,-2.122 2.894,-4.12 3.5,-7.758 0.061,-0.366 0.408,-0.614 0.775,-0.553 0.072,0.012 0.14,0.036 0.202,0.068zm53.237 49.069l-100.821 0 -3.548 0 0 6.53 107.918 0 0 -6.53 -3.549 0zm-98.122 -82.929l98.122 0 3.549 0 0 -12.494 -107.918 0 0 12.494 3.548 0 2.699 0zm47.712 17.902c5.654,0.003 11.286,0.549 16.894,1.632 5.615,1.084 11.242,2.714 16.877,4.885 1.066,0.412 1.72,1.43 1.72,2.508l0.009 0 0 50.605 9.513 0 0 -72.134 -90.026 0 0 72.134 9.513 0 0 -50.605c0,-1.229 0.822,-2.267 1.947,-2.593 5.558,-2.127 11.107,-3.727 16.646,-4.798 5.612,-1.084 11.249,-1.63 16.907,-1.634zm-30.103 10.886l0 48.743 60.205 0 0 -48.743c-4.731,-1.724 -9.472,-3.045 -14.22,-3.963 -5.317,-1.027 -10.612,-1.544 -15.882,-1.547 -5.274,0.003 -10.574,0.521 -15.895,1.55 -4.744,0.917 -9.48,2.238 -14.208,3.96zm16.684 34.875l26.838 0c1.49,0 2.699,1.209 2.699,2.699 0,1.49 -1.209,2.699 -2.699,2.699l-26.838 0c-1.49,0 -2.699,-1.209 -2.699,-2.699 0,-1.49 1.209,-2.699 2.699,-2.699z"/></g></svg>