<svg height="300px" width="300px" fill="#000000" xmlns="http://www.w3.org/2000/svg" xmlns:xlink="http://www.w3.org/1999/xlink" version="1.1" x="0px" y="0px" viewBox="0 0 100 100" enable-background="new 0 0 100 100" xml:space="preserve"><path fill-rule="evenodd" clip-rule="evenodd" d="M86.299,25.55L80.25,15.101H19.699l-6,10.449H86.299z M57.6,38.499  c0-0.365-0.133-0.715-0.4-1.049c-0.268-0.268-0.6-0.4-1-0.4h-12.4c-0.4,0-0.732,0.133-1,0.4c-0.266,0.334-0.4,0.684-0.4,1.049v18  h-6.699c-0.533,0-0.934,0.25-1.199,0.75c-0.234,0.434-0.201,0.9,0.1,1.4l14.299,20c0.268,0.4,0.65,0.6,1.15,0.6s0.867-0.199,1.1-0.6  l14.25-20c0.301-0.5,0.334-0.967,0.102-1.4c-0.234-0.5-0.635-0.75-1.201-0.75H57.6V38.499z M81.699,9.45L82,9.351  c0.666,0,1.266,0.217,1.799,0.648c0.533,0.434,0.883,0.967,1.051,1.602l9,15.648C94.615,28.216,95,29.233,95,30.3v55.699  c0,1.301-0.467,2.418-1.4,3.352c-0.867,0.865-1.967,1.299-3.301,1.299h-80.6c-1.334,0-2.434-0.434-3.301-1.299  C5.467,88.417,5,87.3,5,85.999V30.3c0-1.199,0.365-2.217,1.1-3.051l9.4-16.35c0.533-1.033,1.383-1.549,2.549-1.549h63.65V9.45z"/></svg>