<?xml version="1.0" encoding="UTF-8"?>
<svg width="752pt" height="752pt" version="1.1" viewBox="0 0 752 752" xmlns="http://www.w3.org/2000/svg">
 <defs>
  <clipPath id="a">
   <path d="m139.21 202h473.58v348h-473.58z"/>
  </clipPath>
 </defs>
 <g clip-path="url(#a)">
  <path d="m593.06 229.98h-123.33l-7.8945-16.773c-2.9609-5.918-8.8789-10.852-15.785-10.852h-125.3c-6.9062 0-12.824 3.9453-15.785 10.852l-7.8945 16.773h-59.199l0.003906-8.8789c0-4.9336-4.9336-9.8672-9.8672-9.8672h-39.465c-5.918 0-9.8672 4.9336-9.8672 9.8672v8.8789h-19.73c-10.852 0-19.734 8.8789-19.734 19.734v280.2c0 10.852 8.8789 19.734 19.734 19.734h434.12c10.852 0 19.734-8.8789 19.734-19.734l-0.003906-280.2c0-10.855-8.8789-19.734-19.734-19.734zm-359.13 81.891h-56.238v-30.586h57.223l0.003906 30.586zm142.07 206.2c-71.039 0-128.26-57.223-128.26-128.26s57.223-128.26 128.26-128.26 128.26 57.223 128.26 128.26-57.223 128.26-128.26 128.26z"/>
 </g>
 <path d="m376 281.29c-59.199 0-108.53 48.344-108.53 108.53s48.344 108.53 108.53 108.53 108.53-48.344 108.53-108.53c0.003906-60.184-48.34-108.53-108.53-108.53zm-29.598 113.46c-18.746 0-34.531-15.785-34.531-34.531s15.785-34.531 34.531-34.531 34.531 15.785 34.531 34.531-15.785 34.531-34.531 34.531z"/>
</svg>