<svg height="300px" width="300px" fill="#000000" xmlns="http://www.w3.org/2000/svg" xmlns:xlink="http://www.w3.org/1999/xlink" version="1.1" x="0px" y="0px" viewBox="0 0 512 512" enable-background="new 0 0 512 512" xml:space="preserve"><path d="M484.6,2H27.4C13.4,2,2,13.4,2,27.4v457.2c0,14,11.4,25.4,25.4,25.4h457.2c14,0,25.4-11.4,25.4-25.4V27.4  C510,13.4,498.6,2,484.6,2z M90.9,459.2c-21,0-38.1-17.1-38.1-38.1S69.9,383,90.9,383s38.1,17.1,38.1,38.1S111.9,459.2,90.9,459.2z   M90.9,129c-21,0-38.1-17.1-38.1-38.1s17.1-38.1,38.1-38.1S129,69.9,129,90.9S111.9,129,90.9,129z M287.5,261.1l16.9,84.3  c1.3,6.3-3.6,12.2-10,12.2h-76.8c-6.4,0-11.2-5.9-10-12.2l16.9-84.3c1.6-7.8-0.7-15.9-6.1-21.8c-11-12.1-16.3-29.6-11.3-48.2  c4.7-17.6,19.7-31.7,37.6-35.5c33-7.1,62.1,17.8,62.1,49.6c0,13.1-5,25.1-13.1,34.1C288.3,245.2,285.9,253.3,287.5,261.1z   M421.1,459.2c-21,0-38.1-17.1-38.1-38.1s17.1-38.1,38.1-38.1s38.1,17.1,38.1,38.1S442.1,459.2,421.1,459.2z M421.1,129  c-21,0-38.1-17.1-38.1-38.1s17.1-38.1,38.1-38.1s38.1,17.1,38.1,38.1S442.1,129,421.1,129z"/></svg>