<svg height="300px" width="300px" fill="#000000" xmlns="http://www.w3.org/2000/svg" xmlns:xlink="http://www.w3.org/1999/xlink" xml:space="preserve" version="1.1" style="shape-rendering:geometricPrecision;text-rendering:geometricPrecision;image-rendering:optimizeQuality;" viewBox="0 0 475 577" x="0px" y="0px" fill-rule="evenodd" clip-rule="evenodd"><defs><style type="text/css">
   
    .fil0 {fill:#000000}
   
  </style></defs><g><path class="fil0" d="M0 577l475 0 0 -577 -55 0 0 27c12,4 21,15 21,28 0,17 -14,30 -30,30 -17,0 -31,-13 -31,-30 0,-13 9,-24 21,-28l0 -27 -67 0 0 27c12,4 20,15 20,28 0,17 -13,30 -30,30 -17,0 -30,-13 -30,-30 0,-13 8,-24 20,-28l0 -27 -67 0 0 27c12,4 21,15 21,28 0,17 -14,30 -31,30 -16,0 -30,-13 -30,-30 0,-13 9,-24 21,-28l0 -27 -67 0 0 27c12,4 20,15 20,28 0,17 -13,30 -30,30 -17,0 -30,-13 -30,-30 0,-13 8,-24 20,-28l0 -27 -67 0 0 27c12,4 20,15 20,28 0,17 -13,30 -30,30 -16,0 -30,-13 -30,-30 0,-13 9,-24 20,-28l0 -27 -54 0 0 577zm36 -33l403 0 0 -420 -403 0 0 420z"/><polygon class="fil0" points="72,226 403,226 403,202 72,202 "/><path class="fil0" d="M72 312c110,0 221,0 331,0 0,-8 0,-16 0,-24 -110,0 -221,0 -331,0 0,8 0,16 0,24z"/><path class="fil0" d="M72 399c110,0 221,0 331,0 0,-8 0,-16 0,-24 -110,0 -221,0 -331,0 0,8 0,16 0,24z"/><polygon class="fil0" points="72,485 403,485 403,461 72,461 "/></g></svg>